<?xml version="1.0" encoding="iso-8859-1"?>
<!-- Generator: Adobe Illustrator 16.0.3, SVG Export Plug-In . SVG Version: 6.00 Build 0)  -->
<!DOCTYPE svg PUBLIC "-//W3C//DTD SVG 1.1//EN" "http://www.w3.org/Graphics/SVG/1.1/DTD/svg11.dtd">
<svg version="1.1" id="Layer_1" xmlns="http://www.w3.org/2000/svg" xmlns:xlink="http://www.w3.org/1999/xlink" x="0px" y="0px"
	 width="36.013px" height="36px" viewBox="0 0 36.013 36" style="enable-background:new 0 0 36.013 36;" xml:space="preserve">
<path style="fill:none;" d="M18,36c9.958,0,18.013-8.059,18.013-18.001C36.013,8.059,27.958,0,18,0C8.055,0,0,8.059,0,17.999
	C0,27.941,8.055,36,18,36L18,36z M18,3.008c8.297,0,15.003,6.714,15.003,14.991c0,8.283-6.706,14.994-15.003,14.994
	c-8.286,0-14.992-6.711-14.992-14.994C3.008,9.721,9.714,3.008,18,3.008L18,3.008z"/>
<path style="fill:#FFFFFF;" d="M14.91,27.114L25.556,18L14.91,8.886l-1.754,2.046L21.413,18l-8.257,7.068L14.91,27.114L14.91,27.114
	z"/>
</svg>
