<?xml version="1.0" encoding="iso-8859-1"?>
<!-- Generator: Adobe Illustrator 16.0.3, SVG Export Plug-In . SVG Version: 6.00 Build 0)  -->
<!DOCTYPE svg PUBLIC "-//W3C//DTD SVG 1.1//EN" "http://www.w3.org/Graphics/SVG/1.1/DTD/svg11.dtd">
<svg version="1.1" id="Layer_1" xmlns="http://www.w3.org/2000/svg" xmlns:xlink="http://www.w3.org/1999/xlink" x="0px" y="0px"
	 width="36.013px" height="36px" viewBox="0 0 36.013 36" style="enable-background:new 0 0 36.013 36;" xml:space="preserve">
<path style="fill:none;" d="M18.013,36C8.055,36,0,27.941,0,17.999C0,8.059,8.055,0,18.013,0c9.945,0,18,8.059,18,17.999
	C36.013,27.941,27.958,36,18.013,36L18.013,36z M18.013,3.008C9.715,3.008,3.01,9.721,3.01,17.999
	c0,8.283,6.706,14.994,15.003,14.994c8.286,0,14.991-6.711,14.991-14.994C33.004,9.721,26.299,3.008,18.013,3.008L18.013,3.008z"/>
<path style="fill:#FFFFFF;" d="M21.103,27.114L10.457,18l10.646-9.114l1.754,2.046L14.6,18l8.257,7.068L21.103,27.114L21.103,27.114
	z"/>
</svg>
