<?xml version="1.0" encoding="utf-8"?>
<!-- Generator: Adobe Illustrator 17.1.0, SVG Export Plug-In . SVG Version: 6.00 Build 0)  -->
<!DOCTYPE svg PUBLIC "-//W3C//DTD SVG 1.1//EN" "http://www.w3.org/Graphics/SVG/1.1/DTD/svg11.dtd">
<svg version="1.1" id="Слой_1" xmlns="http://www.w3.org/2000/svg" xmlns:xlink="http://www.w3.org/1999/xlink" x="0px" y="0px"
	 width="44.004px" height="42.004px" viewBox="0 0 44.004 42.004" enable-background="new 0 0 44.004 42.004" xml:space="preserve">
<path d="M38.859,20.607c-2.704-1.094-5.231-0.864-7.179,0.605v-1.683c0.391,0.08,0.892,0.154,1.449,0.154
	c0.907,0,1.708-0.189,2.384-0.56c1.99-1.102,2.545-3.658,2.567-3.766c0.086-0.403-0.147-0.806-0.542-0.943
	c-0.041-0.015-1.036-0.356-2.243-0.356c-0.905,0-1.708,0.189-2.38,0.561c-0.495,0.274-0.902,0.638-1.234,1.031v-1.921
	c0-0.456-0.38-0.826-0.846-0.826s-0.846,0.37-0.846,0.826v7.484c-1.262-0.95-2.77-1.366-4.404-1.254v-7.428
	c0-1.027-0.689-2.461-3.736-3.618V3.658c0-4.877-18.113-4.877-18.113,0V8.91C1.329,9.824,0,11.095,0,12.531v24.441
	c0,3.269,6.591,5.03,12.793,5.03c4.553,0,8.703-0.893,10.939-2.331c1.619,1.413,3.383,2.331,5.05,2.331
	c0.557,0,1.092-0.102,1.584-0.302c0.157-0.064,0.312-0.139,0.469-0.232c0.158,0.094,0.314,0.168,0.466,0.232
	c0.494,0.2,1.028,0.304,1.586,0.304l0,0c4.041,0,8.626-5.306,10.377-10.263C45.096,26.54,43.492,22.482,38.859,20.607z
	 M33.741,16.054c0.634-0.35,1.678-0.395,2.433-0.273c-0.253,0.623-0.72,1.471-1.495,1.9c-0.418,0.229-0.938,0.346-1.551,0.346
	c-0.319,0-0.624-0.033-0.881-0.074C32.499,17.333,32.965,16.488,33.741,16.054z M5.426,9.635c0.023-0.111,0.025-0.223,0-0.339V5.91
	c1.73,0.965,4.558,1.461,7.365,1.461c2.806,0,5.634-0.495,7.365-1.461v4.077c0,0.726-2.796,2.061-7.365,2.061
	s-7.365-1.336-7.365-2.061C5.426,9.987,5.426,9.635,5.426,9.635z M12.791,1.593c4.568,0,7.365,1.336,7.365,2.063
	c0,0.728-2.796,2.063-7.365,2.063S5.426,4.384,5.426,3.656C5.426,2.929,8.221,1.593,12.791,1.593z M3.864,10.64
	c0.739,2.01,4.85,3.061,8.927,3.061c4.079,0,8.193-1.052,8.927-3.064c1.581,0.68,2.174,1.4,2.174,1.893
	c0,1.41-4.224,3.375-11.101,3.375c-6.878,0-11.101-1.965-11.101-3.375C1.689,11.924,2.519,11.225,3.864,10.64z M1.689,21.926
	c2.2,1.492,6.24,2.326,10.255,2.431V33.8c-6.377-0.155-10.255-2.018-10.255-3.367C1.689,30.433,1.689,21.926,1.689,21.926z
	 M1.689,36.969v-3.947c2.355,1.598,6.82,2.439,11.101,2.439c0.467,0,0.846-0.373,0.846-0.826V23.541
	c0-0.457-0.379-0.826-0.846-0.826c-6.878,0-11.101-1.967-11.101-3.377v-4.214c2.355,1.596,6.82,2.437,11.101,2.437
	s8.745-0.841,11.101-2.437v5.118c-0.358,0.101-0.722,0.218-1.086,0.367c-4.635,1.876-6.238,5.931-4.4,11.129
	c0.837,2.373,2.326,4.817,4.09,6.728c-2.023,1.148-5.727,1.882-9.707,1.882C5.912,40.345,1.689,38.378,1.689,36.969z M41.662,31.196
	c-1.885,5.338-6.887,10.116-9.718,8.973c-0.172-0.071-0.36-0.184-0.591-0.36c-0.152-0.118-0.335-0.176-0.518-0.176
	c-0.185,0-0.372,0.061-0.524,0.176c-0.23,0.173-0.418,0.289-0.593,0.36c-2.8,1.14-7.829-3.635-9.715-8.973
	c-1.96-5.544,0.794-7.987,3.452-9.06c2.749-1.115,5.081-0.581,6.69,1.614c0.01,0.014,0.03,0.019,0.04,0.032
	c0.158,0.187,0.383,0.313,0.647,0.313c0.263,0,0.492-0.126,0.648-0.313c0.01-0.013,0.03-0.018,0.038-0.032
	c1.609-2.194,3.94-2.726,6.691-1.614C40.864,23.208,43.62,25.652,41.662,31.196z"/>
</svg>
