<?xml version="1.0" encoding="iso-8859-1"?>
<!-- Generator: Adobe Illustrator 16.0.3, SVG Export Plug-In . SVG Version: 6.00 Build 0)  -->
<!DOCTYPE svg PUBLIC "-//W3C//DTD SVG 1.1//EN" "http://www.w3.org/Graphics/SVG/1.1/DTD/svg11.dtd">
<svg version="1.1" id="Layer_1" xmlns="http://www.w3.org/2000/svg" xmlns:xlink="http://www.w3.org/1999/xlink" x="0px" y="0px"
	 width="14px" height="14.013px" viewBox="0 0 14 14.013" style="enable-background:new 0 0 14 14.013;" xml:space="preserve">
<path style="fill:#2980BA;" d="M7.91,3.553L5.47,0L3.93,0.883l1.84,2.669H0v1.739h6.96L7,5.339l0.08-0.047H14V3.553H7.91L7.91,3.553
	z M2.65,12.911c0.1,0.551,0.539,0.978,1.1,1.056l0.02,0.019H9.73c0.08,0.018,0.17,0.027,0.26,0.027c0.63,0,1.16-0.447,1.279-1.038
	l0.051-0.049l1.81-6.738H0.88L2.65,12.911L2.65,12.911z M9.63,7.9c0.49,0,0.88,0.392,0.88,0.876c0,0.484-0.39,0.876-0.88,0.876
	S8.75,9.26,8.75,8.776C8.75,8.292,9.14,7.9,9.63,7.9L9.63,7.9z M9.58,10.454c0.5,0,0.91,0.404,0.91,0.904s-0.41,0.903-0.91,0.903
	c-0.51,0-0.91-0.404-0.91-0.903S9.07,10.454,9.58,10.454L9.58,10.454z M7.01,12.247c-0.49,0-0.88-0.395-0.88-0.883
	c0-0.488,0.39-0.883,0.88-0.883S7.9,10.876,7.9,11.364C7.9,11.852,7.5,12.247,7.01,12.247L7.01,12.247z M6.98,7.845
	c0.489,0,0.88,0.393,0.88,0.876S7.47,9.598,6.98,9.598C6.49,9.598,6.1,9.205,6.1,8.722S6.49,7.845,6.98,7.845L6.98,7.845z
	 M4.4,12.301c-0.48,0-0.87-0.389-0.87-0.869s0.39-0.869,0.87-0.869c0.49,0,0.88,0.389,0.88,0.869S4.891,12.301,4.4,12.301
	L4.4,12.301z M4.38,7.9c0.48,0,0.87,0.389,0.87,0.87c0,0.48-0.39,0.87-0.87,0.87c-0.49,0-0.88-0.389-0.88-0.87
	C3.5,8.289,3.89,7.9,4.38,7.9L4.38,7.9z"/>
</svg>
