<?xml version="1.0" encoding="utf-8"?>
<!-- Generator: Adobe Illustrator 17.1.0, SVG Export Plug-In . SVG Version: 6.00 Build 0)  -->
<!DOCTYPE svg PUBLIC "-//W3C//DTD SVG 1.1//EN" "http://www.w3.org/Graphics/SVG/1.1/DTD/svg11.dtd">
<svg version="1.1" id="Слой_1" xmlns="http://www.w3.org/2000/svg" xmlns:xlink="http://www.w3.org/1999/xlink" x="0px" y="0px"
	 width="43.997px" height="44.998px" viewBox="18.222 17.565 43.997 44.998" enable-background="new 18.222 17.565 43.997 44.998"
	 xml:space="preserve">
<g>
	<path d="M62.219,35.589c0-2.73-1.88-5.023-4.398-5.619c0.559-0.906,0.858-1.954,0.858-3.047c0-1.541-0.593-2.989-1.667-4.078
		c-1.075-1.089-2.503-1.69-4.023-1.69c-1.079,0-2.112,0.303-3.005,0.869c-0.587-2.553-2.848-4.459-5.542-4.459
		c-2.693,0-4.955,1.906-5.541,4.459c-0.894-0.566-1.927-0.869-3.006-0.869c-1.52,0-2.948,0.6-4.023,1.69
		c-1.075,1.089-1.666,2.537-1.666,4.078c0,1.094,0.298,2.141,0.857,3.047c-2.517,0.594-4.397,2.888-4.397,5.619
		c0,2.73,1.88,5.024,4.397,5.618c-0.559,0.905-0.857,1.954-0.857,3.048c0,0.394,0.04,0.782,0.115,1.159
		c-0.936,0.649-1.801,1.167-2.455,1.4c-2.391,0.85-5.186,3.104-6.609,4.345c-0.272,0.22-0.505,0.428-0.71,0.637
		c-2.741,2.778-3.112,6.923-0.828,9.24c0.971,0.985,2.322,1.527,3.805,1.527c1.891,0,3.827-0.863,5.308-2.365
		c0.206-0.209,0.406-0.438,0.603-0.689c1.25-1.473,3.473-4.307,4.31-6.731c0.253-0.732,0.843-1.72,1.579-2.782
		c0.188,0.018,0.378,0.028,0.57,0.028c1.079,0,2.113-0.302,3.006-0.869c0.586,2.552,2.848,4.458,5.541,4.458
		s4.955-1.906,5.542-4.458c0.893,0.567,1.927,0.869,3.005,0.869c1.52,0,2.948-0.6,4.023-1.689c1.905-1.931,2.174-4.902,0.809-7.127
		C60.338,40.614,62.219,38.319,62.219,35.589z M31.714,52.054c-0.748,2.162-2.984,4.936-3.937,6.06
		c-0.145,0.185-0.297,0.365-0.467,0.538c-1.081,1.097-2.462,1.726-3.786,1.726c-0.642,0-1.558-0.154-2.282-0.888
		c-1.445-1.464-1.074-4.224,0.826-6.152c0.17-0.171,0.349-0.326,0.562-0.5c1.077-0.939,3.812-3.206,5.947-3.964
		c0.748-0.266,1.648-0.779,2.591-1.408c0.205,0.308,0.439,0.598,0.704,0.866c0.39,0.397,0.828,0.725,1.3,0.986
		C32.518,50.315,31.986,51.267,31.714,52.054z M56.531,39.174c-0.213,0-0.432-0.023-0.672-0.071l-0.901-0.118l-0.733,1.794
		l0.737,0.503c0.204,0.139,0.376,0.282,0.529,0.438c1.379,1.397,1.379,3.672,0,5.071c-0.669,0.677-1.556,1.049-2.501,1.049
		s-1.832-0.373-2.499-1.049c-0.154-0.156-0.296-0.333-0.431-0.535l-0.493-0.743l-1.825,0.77l0.168,0.88
		c0.046,0.245,0.069,0.468,0.069,0.683c0,1.977-1.587,3.584-3.537,3.584c-1.951,0-3.537-1.607-3.537-3.584
		c0-0.216,0.022-0.439,0.069-0.683l0.114-0.904l-1.77-0.743l-0.493,0.742c-0.135,0.203-0.276,0.38-0.43,0.534
		c-0.37,0.376-0.812,0.647-1.29,0.824c-0.384,0.141-0.79,0.227-1.211,0.227c-0.511,0-1.002-0.118-1.453-0.325
		c-0.383-0.175-0.741-0.413-1.047-0.725c-0.178-0.18-0.331-0.378-0.464-0.587c-0.37-0.576-0.571-1.246-0.571-1.948
		c0-0.134,0.024-0.263,0.038-0.394c0.086-0.808,0.422-1.56,0.998-2.142c0.151-0.154,0.323-0.297,0.527-0.436l0.736-0.503
		l-0.757-1.848l-0.877,0.172c-0.239,0.047-0.459,0.071-0.671,0.071c-1.95,0-3.536-1.609-3.536-3.586
		c0-1.977,1.586-3.586,3.536-3.586c0.212,0,0.432,0.023,0.673,0.07l0.896,0.117l0.733-1.793l-0.733-0.502
		c-0.204-0.139-0.377-0.282-0.529-0.437c-0.668-0.678-1.036-1.578-1.036-2.535c0-0.958,0.368-1.859,1.036-2.535
		c0.667-0.677,1.556-1.05,2.5-1.05c0.945,0,1.833,0.373,2.501,1.051c0.152,0.154,0.293,0.329,0.429,0.534l0.497,0.748l1.82-0.774
		l-0.166-0.88c-0.047-0.244-0.069-0.469-0.069-0.682c0-1.977,1.586-3.586,3.536-3.586s3.536,1.609,3.536,3.586
		c0,0.215-0.022,0.438-0.069,0.682l-0.104,0.908l1.756,0.748l0.498-0.748c0.137-0.206,0.278-0.381,0.431-0.536
		c0.668-0.677,1.556-1.05,2.5-1.05c0.945,0,1.833,0.373,2.501,1.05c0.667,0.677,1.035,1.578,1.035,2.535s-0.368,1.858-1.035,2.535
		c-0.154,0.155-0.327,0.298-0.527,0.435l-0.735,0.501l0.758,1.848l0.872-0.17c0.241-0.047,0.462-0.07,0.674-0.07
		c1.95,0,3.536,1.609,3.536,3.586C60.067,37.566,58.481,39.174,56.531,39.174z M44.629,25.818c-2.624,0-5.091,1.036-6.948,2.918
		c-3.194,3.238-3.715,8.165-1.583,11.966c0.425,0.757,0.945,1.474,1.581,2.12c0.001,0,0.002,0.001,0.002,0.002
		c0.001,0.001,0.002,0.001,0.002,0.001c0.63,0.638,1.335,1.17,2.087,1.607c1.465,0.848,3.125,1.309,4.858,1.309
		c2.625,0,5.092-1.036,6.948-2.918c3.831-3.884,3.831-10.204,0-14.088C49.721,26.854,47.254,25.818,44.629,25.818z M50.055,41.279
		c-1.45,1.47-3.376,2.278-5.426,2.278c-2.046,0-3.969-0.806-5.417-2.271c-0.002-0.002-0.005-0.004-0.008-0.007
		c-0.002-0.002-0.004-0.006-0.006-0.007c-2.984-3.034-2.982-7.963,0.006-10.994C40.654,28.808,42.58,28,44.629,28
		s3.977,0.808,5.426,2.278C53.046,33.311,53.046,38.247,50.055,41.279z M24.396,53.464c-1.554,0-2.817,1.281-2.817,2.857
		c0,1.575,1.264,2.857,2.817,2.857c1.554,0,2.818-1.281,2.818-2.857S25.95,53.464,24.396,53.464z M24.396,56.995
		c-0.366,0-0.664-0.302-0.664-0.674s0.298-0.674,0.664-0.674s0.664,0.302,0.664,0.674S24.762,56.995,24.396,56.995z"/>
</g>
</svg>
