<?xml version="1.0" encoding="utf-8"?>
<!-- Generator: Adobe Illustrator 17.1.0, SVG Export Plug-In . SVG Version: 6.00 Build 0)  -->
<!DOCTYPE svg PUBLIC "-//W3C//DTD SVG 1.1//EN" "http://www.w3.org/Graphics/SVG/1.1/DTD/svg11.dtd">
<svg version="1.1" id="Слой_1" xmlns="http://www.w3.org/2000/svg" xmlns:xlink="http://www.w3.org/1999/xlink" x="0px" y="0px"
	 width="41.995px" height="39.998px" viewBox="0 0 41.995 39.998" enable-background="new 0 0 41.995 39.998" xml:space="preserve">
<path d="M34.779,21.721c-3.746-4.256-8.553-6.611-11.178-7.664c-0.076-0.531-0.164-1.03-0.257-1.511l3.57-0.873l6.038,2.31
	l6.148-2.863l-0.329-0.725l-5.849,2.724l-5.959-2.279l-3.682,0.9c0.444-0.843,0.719-1.909,0.719-3.084
	c0-0.489-0.049-0.962-0.135-1.407l2.979-0.637L28.132,2.8l6.69-2.037L34.596,0l-7.077,2.154l-1.271,3.77l-2.582,0.551
	c-0.292-0.904-0.754-1.654-1.327-2.131c0.987-0.303,1.664-0.891,1.664-1.574c0-0.991-1.409-1.796-3.147-1.796
	c-1.737,0-3.146,0.804-3.146,1.796c0,0.684,0.678,1.271,1.664,1.574c-0.567,0.471-1.022,1.208-1.316,2.096l-2.421-0.516l-1.271-3.77
	L7.287,0.001L7.061,0.764l6.69,2.037l1.285,3.811l2.815,0.602c-0.092,0.458-0.144,0.94-0.144,1.442c0,1.241,0.299,2.369,0.789,3.231
	c-0.024,0.107-0.045,0.23-0.067,0.343l-4.528-1.106l-5.959,2.279L2.095,10.68l-0.329,0.724l6.149,2.863l6.038-2.309l4.324,1.056
	c-0.064,0.376-0.125,0.766-0.179,1.166c-2.678,1.106-7.269,3.439-10.881,7.542C2.358,27.24-1.596,34.201,0.642,36.231
	c0.341,0.309,0.799,0.466,1.359,0.466c0,0,0,0,0,0c2.647,0,7.513-3.509,12.109-8.73c1.539-1.748,2.743-3.641,3.679-5.457
	c0.028,0.514,0.068,1.011,0.113,1.5c-0.694,1.888-1.503,4.849-1.526,8.473L9.894,39.45l0.571,0.547l6.696-7.198v-0.158
	c0-2.651,0.451-4.968,0.963-6.746c0.537,3.699,1.554,6.205,2.731,6.205c1.252,0,2.33-2.838,2.834-6.937
	c0.596,1.85,1.186,4.446,1.186,7.479v0.158l6.696,7.198l0.572-0.547l-6.482-6.967c-0.026-4.102-1.059-7.356-1.792-9.159
	c0.033-0.432,0.061-0.869,0.081-1.32c0.97,1.968,2.252,4.053,3.935,5.964c4.596,5.221,9.462,8.73,12.108,8.73
	c0.561,0,1.018-0.157,1.36-0.466C43.591,34.2,39.637,27.239,34.779,21.721z M13.523,27.434c-4.316,4.904-9.161,8.463-11.521,8.463
	c-0.362,0-0.642-0.089-0.836-0.263c-1.352-1.226,1.041-7.023,6.637-13.383c4.36-4.952,10.212-7.262,12.105-7.913
	C19.485,16.322,17.884,22.481,13.523,27.434z M40.829,35.634c-0.193,0.174-0.474,0.263-0.836,0.263
	c-2.36,0-7.206-3.558-11.521-8.463c-4.361-4.953-5.962-11.114-6.385-13.096c1.893,0.65,7.742,2.955,12.105,7.913
	C39.788,28.611,42.181,34.408,40.829,35.634z"/>
</svg>
