<?xml version="1.0" encoding="utf-8"?>
<!-- Generator: Adobe Illustrator 17.1.0, SVG Export Plug-In . SVG Version: 6.00 Build 0)  -->
<!DOCTYPE svg PUBLIC "-//W3C//DTD SVG 1.1//EN" "http://www.w3.org/Graphics/SVG/1.1/DTD/svg11.dtd">
<svg version="1.1" id="Слой_1" xmlns="http://www.w3.org/2000/svg" xmlns:xlink="http://www.w3.org/1999/xlink" x="0px" y="0px"
	 width="35px" height="35px" viewBox="0 0 35 35" enable-background="new 0 0 35 35" xml:space="preserve">
<path fill-rule="evenodd" clip-rule="evenodd" d="M15.449,0c8.543,0.028,15.484,7.028,15.449,15.5
	C30.864,24.061,23.982,31,15.449,31C6.917,31,0,24.061,0,15.5C0,6.94,6.917-0.028,15.449,0z"/>
<path fill="#FFFFFF" d="M12.012,13.035h1.473v-0.683v-0.669V11.57c0-0.644,0.016-1.64,0.475-2.257
	c0.483-0.653,1.146-1.096,2.286-1.096c1.858,0,2.641,0.271,2.641,0.271l-0.368,2.231c0,0-0.614-0.181-1.187-0.181
	c-0.573,0-1.086,0.209-1.086,0.795v0.237v0.781v0.683h2.349l-0.164,2.178h-2.185v7.57h-2.761v-7.57h-1.473V13.035L12.012,13.035z"/>
</svg>
