<?xml version="1.0" encoding="utf-8"?>
<!-- Generator: Adobe Illustrator 17.1.0, SVG Export Plug-In . SVG Version: 6.00 Build 0)  -->
<!DOCTYPE svg PUBLIC "-//W3C//DTD SVG 1.1//EN" "http://www.w3.org/Graphics/SVG/1.1/DTD/svg11.dtd">
<svg version="1.1" id="Слой_1" xmlns="http://www.w3.org/2000/svg" xmlns:xlink="http://www.w3.org/1999/xlink" x="0px" y="0px"
	 width="35px" height="35px" viewBox="0 0 35 35" enable-background="new 0 0 35 35" xml:space="preserve">
<path fill-rule="evenodd" clip-rule="evenodd" d="M15.449,0c8.532,0,15.449,6.94,15.449,15.5c0,8.56-6.917,15.5-15.449,15.5
	S0,24.06,0,15.5C0,6.94,6.917,0,15.449,0z"/>
<path fill="#FFFFFF" d="M22.957,11.098c-0.506,0.231-1.051,0.388-1.622,0.458c0.583-0.36,1.031-0.931,1.242-1.611
	c-0.546,0.334-1.15,0.576-1.794,0.707c-0.515-0.566-1.249-0.92-2.061-0.92c-1.56,0-2.824,1.304-2.824,2.912
	c0,0.228,0.025,0.451,0.073,0.664c-2.347-0.122-4.428-1.281-5.821-3.043c-0.243,0.43-0.382,0.93-0.382,1.464
	c0,1.01,0.499,1.902,1.256,2.424c-0.463-0.015-0.898-0.146-1.279-0.364c0,0.012,0,0.024,0,0.037c0,1.411,0.973,2.588,2.265,2.856
	c-0.237,0.066-0.486,0.102-0.744,0.102c-0.182,0-0.359-0.018-0.531-0.052c0.359,1.157,1.402,1.999,2.638,2.022
	C12.406,19.535,11.188,20,9.865,20c-0.228,0-0.453-0.014-0.674-0.041c1.25,0.826,2.734,1.309,4.329,1.309
	c5.195,0,8.035-4.438,8.035-8.286c0-0.126-0.003-0.252-0.008-0.377C22.1,12.194,22.578,11.682,22.957,11.098L22.957,11.098z"/>
</svg>
