<?xml version="1.0" encoding="utf-8"?>
<!-- Generator: Adobe Illustrator 17.1.0, SVG Export Plug-In . SVG Version: 6.00 Build 0)  -->
<!DOCTYPE svg PUBLIC "-//W3C//DTD SVG 1.1//EN" "http://www.w3.org/Graphics/SVG/1.1/DTD/svg11.dtd">
<svg version="1.1" id="Слой_1" xmlns="http://www.w3.org/2000/svg" xmlns:xlink="http://www.w3.org/1999/xlink" x="0px" y="0px"
	 width="35px" height="35px" viewBox="0 0 35 35" enable-background="new 0 0 35 35" xml:space="preserve">
<path fill-rule="evenodd" clip-rule="evenodd" d="M15.449,0c8.543,0.028,15.484,7.028,15.449,15.5
	C30.864,24.061,23.982,31,15.449,31C6.917,31,0,24.061,0,15.5C0,6.94,6.917-0.028,15.449,0z"/>
<path fill-rule="evenodd" clip-rule="evenodd" fill="#FFFFFF" d="M10.883,9.431h5.213c1.715,0,3.175,0.889,3.174,2.685
	c-0.001,1.5-0.515,2.084-1.571,2.744c0.09,0.078,0.695,0.269,0.898,0.375c0.325,0.169,0.517,0.341,0.73,0.571
	c0.599,0.644,0.711,1.232,0.711,2.242c0,2.343-2.143,3.521-4.207,3.521h-4.97L10.883,9.431L10.883,9.431z M13.715,12.62l0,1.576
	c1.343,0,2.604,0.187,2.604-1.352c0-1.425-1.427-1.19-2.605-1.19L13.715,12.62L13.715,12.62z M13.715,19.335
	c1.471,0,3.289,0.256,3.321-1.51c0.033-1.843-1.867-1.51-3.32-1.51L13.715,19.335L13.715,19.335z"/>
</svg>
