<?xml version="1.0" encoding="utf-8"?>
<!-- Generator: Adobe Illustrator 16.0.3, SVG Export Plug-In . SVG Version: 6.00 Build 0)  -->
<!DOCTYPE svg PUBLIC "-//W3C//DTD SVG 1.0//EN" "http://www.w3.org/TR/2001/REC-SVG-20010904/DTD/svg10.dtd">
<svg version="1.0" id="Layer_1" xmlns="http://www.w3.org/2000/svg" xmlns:xlink="http://www.w3.org/1999/xlink" x="0px" y="0px"
	 width="35.997px" height="41.001px" viewBox="0 0 35.997 41.001" enable-background="new 0 0 35.997 41.001" xml:space="preserve">
<g>
	<g>
		<path fill="#2980B9" d="M34.665,28.094c-0.408-0.417-0.89-0.766-1.447-1.051c-2.79-1.422-5.679-2.602-8.6-3.717
			c-0.217-0.081-0.478-0.247-0.567-0.437c-0.239-0.524-0.403-1.081-0.575-1.628c-0.107-0.352-0.201-0.682-0.588-0.853
			c-0.104-0.046-0.2-0.248-0.2-0.378c0.022-1.275-0.274-2.613,0.677-3.726c0.03-0.034,0.041-0.083,0.062-0.124
			c0.515-1.116,0.602-2.394,1.321-3.434c0.018-0.023,0.021-0.057,0.025-0.087c0.084-0.795,0.168-1.584,0.237-2.377
			c0.007-0.096-0.079-0.272-0.165-0.302c-0.394-0.138-0.373-0.456-0.371-0.77c0-1.549,0-1.774-0.002-3.322
			c0-0.901-0.267-1.7-0.949-2.313c-0.782-0.696-1.582-1.371-2.384-2.043c-0.386-0.326-0.421-0.576-0.058-0.933
			c0.161-0.158,0.364-0.273,0.551-0.405c-0.041-0.061-0.08-0.122-0.122-0.182c-0.241,0-0.485-0.032-0.72,0.004
			c-0.889,0.142-1.778,0.267-2.646,0.47c-1.662,0.39-3.275,0.906-4.622,2.011c-0.92,0.756-1.656,1.636-1.75,2.881
			c-0.045,0.652-0.04,1.31-0.045,1.96c-0.007,1.065,0.01,0.806-0.013,1.868c-0.006,0.173-0.102,0.457-0.225,0.496
			c-0.432,0.14-0.444,0.416-0.385,0.774c0.042,0.246,0.01,0.504,0.063,0.745c0.15,0.665,0.308,1.331,0.502,1.985
			c0.143,0.487,0.421,0.948,0.501,1.444c0.151,0.991,0.523,1.851,1.197,2.601c0.109,0.124,0.193,0.331,0.181,0.496
			c-0.054,0.76-0.132,1.522-0.236,2.28c-0.021,0.147-0.176,0.368-0.304,0.396c-0.51,0.104-0.588,0.493-0.71,0.89
			c-0.159,0.52-0.331,1.039-0.533,1.544c-0.064,0.157-0.223,0.319-0.378,0.391C10.48,23.639,9.557,24,8.644,24.381
			c-0.971,0.406-1.951,0.794-2.899,1.241c-0.977,0.466-1.926,0.987-2.884,1.498c-0.563,0.3-1.091,0.633-1.528,1.044L0,33.805
			c4.789,0,7.89,2.539,11.9,4.102c1.373,1.872,3.589,3.095,6.098,3.095c2.678,0,5.024-1.392,6.363-3.482
			c4.258-1.558,8.951-3.714,11.635-3.714L34.665,28.094z M18.064,40.179c-3.187,0-5.779-2.577-5.779-5.745
			c0-3.169,2.593-5.746,5.779-5.746s5.78,2.578,5.78,5.746S21.25,40.179,18.064,40.179z M18.59,35.831l0.132-4.76h-1.316l0.132,4.76
			H18.59z M18.064,36.266c-0.423,0-0.744,0.329-0.744,0.765c0,0.437,0.32,0.765,0.744,0.765c0.432,0,0.744-0.321,0.744-0.765
			C18.808,36.588,18.496,36.266,18.064,36.266z"/>
	</g>
</g>
</svg>
