<?xml version="1.0" encoding="utf-8"?>
<!-- Generator: Adobe Illustrator 17.1.0, SVG Export Plug-In . SVG Version: 6.00 Build 0)  -->
<!DOCTYPE svg PUBLIC "-//W3C//DTD SVG 1.1//EN" "http://www.w3.org/Graphics/SVG/1.1/DTD/svg11.dtd">
<svg version="1.1" id="Слой_1" xmlns="http://www.w3.org/2000/svg" xmlns:xlink="http://www.w3.org/1999/xlink" x="0px" y="0px"
	 width="37.973px" height="43.996px" viewBox="0 0 37.973 43.996" enable-background="new 0 0 37.973 43.996" xml:space="preserve">
<g>
	<g>
		<path d="M33.354,13.383c-1.581-1.323-3.603-1.992-6.011-1.992c-2.532,0-4.972,0.751-6.627,1.405
			c-0.003-1.042,0.058-4.375,0.058-4.375c1.31,0.278,3.209,0.155,4.563,0.155c0.747,0,1.461-0.047,2.124-0.137
			c4.149-0.569,6.263-3.895,7.057-5.146l0.073-0.114c0.086-0.135,0.102-0.302,0.043-0.451C34.578,2.579,30.618,0,26.833,0
			c-5.248,0-8.266,4.889-8.416,5.097c-0.061,0.085-0.094,0.187-0.094,0.29v7.429c-1.738-0.687-4.515-1.57-7.361-1.57
			c-2.584,0-4.726,0.724-6.343,2.138c-6.684,5.592-5.261,15.221-1.11,21.802c3.931,6.232,7.392,8.501,13.744,8.765v0.047
			l1.734-0.007h0.398l1.335-0.01v-0.033c6.285-0.275,9.865-2.612,13.744-8.762C38.616,28.604,40.039,18.975,33.354,13.383z
			 M32.222,33.74c-3.647,5.783-6.645,7.547-12.83,7.547h-0.809c-6.262,0-9.14-1.693-12.83-7.547
			c-3.542-5.615-4.877-13.731,0.584-18.3c1.143-0.997,2.699-1.503,4.627-1.503c3.894,0,7.897,2.044,7.937,2.065l0.602,0.311
			l0.602-0.307c0.885-0.452,4.026-1.925,7.237-1.925c1.772,0,3.225,0.463,4.317,1.376C37.099,20.007,35.764,28.123,32.222,33.74z
			 M14.638,37.125c-0.288-0.215-0.576-0.509-0.905-0.78c-0.328-0.275-0.631-0.639-0.984-0.956c-0.313-0.376-0.681-0.708-0.999-1.129
			c-0.34-0.4-0.674-0.814-0.977-1.24c-0.311-0.388-0.656-0.916-0.998-1.408c-1.203-1.683-1.95-3.853-2.518-5.537
			c-0.552-1.75-0.92-2.916-0.92-2.916s-0.502,1.203-0.572,3.117c-0.048,0.956,0.012,2.083,0.285,3.282
			c0.269,1.191,0.767,2.478,1.554,3.604c0.351,0.494,0.663,0.98,1.136,1.484c0.421,0.514,0.889,0.946,1.352,1.339
			c0.447,0.412,0.973,0.715,1.427,1.03c0.503,0.258,0.958,0.518,1.422,0.672c0.9,0.36,1.696,0.487,2.244,0.542
			c0.556,0.04,0.87,0.032,0.87,0.032s-0.249-0.215-0.676-0.538C15.161,37.573,14.923,37.339,14.638,37.125z"/>
	</g>
</g>
</svg>
