<?xml version="1.0" encoding="utf-8"?>
<!-- Generator: Adobe Illustrator 17.1.0, SVG Export Plug-In . SVG Version: 6.00 Build 0)  -->
<!DOCTYPE svg PUBLIC "-//W3C//DTD SVG 1.1//EN" "http://www.w3.org/Graphics/SVG/1.1/DTD/svg11.dtd">
<svg version="1.1" id="Слой_1" xmlns="http://www.w3.org/2000/svg" xmlns:xlink="http://www.w3.org/1999/xlink" x="0px" y="0px"
	 width="37.995px" height="44.002px" viewBox="9.104 18.278 37.995 44.002" enable-background="new 9.104 18.278 37.995 44.002"
	 xml:space="preserve">
<path d="M18.547,37.718c0,0.517-0.431,0.94-0.962,0.94c-0.517,0-1.008,0.131-1.471,0.393c-1.07,0.601-1.729,1.791-1.729,3.099
	c0,0.369,0.057,0.744,0.177,1.109c0.009,0.031,0.066,0.217,0.071,0.246c0.029,0.074,0.244,0.402,0.408,0.641
	c0.521,0.797,1.162,1.763,1.602,3.078c0.165,0.494-0.112,1.025-0.613,1.186c-0.102,0.031-0.2,0.044-0.3,0.044
	c-0.406,0-0.779-0.251-0.916-0.648c-0.362-1.083-0.902-1.903-1.379-2.624c-0.235-0.347-0.534-0.825-0.593-0.951
	c-0.029-0.059-0.044-0.119-0.057-0.182l0.857-0.509l-0.921,0.277c-0.175-0.547-0.263-1.109-0.263-1.671
	c0-1.979,1.028-3.789,2.689-4.73c0.758-0.431,1.573-0.647,2.434-0.647C18.118,36.778,18.547,37.195,18.547,37.718z M47.099,35.404
	v21.092c0,0.516-0.43,0.94-0.962,0.94H34.806c-0.768,2.185-2.75,3.957-5.49,4.8c-0.096,0.031-0.192,0.044-0.288,0.044
	c-0.2,0-0.402-0.062-0.567-0.182c-0.248-0.182-0.394-0.459-0.394-0.758c0-0.031,0.007-0.132,0.011-0.162
	c0-5.647-2.476-9.599-4.7-9.599c-2.204,0-4.66,3.886-4.7,9.479c0.031,0.092,0.042,0.187,0.042,0.279c0,0.577-0.56,1.021-1.131,0.922
	c-0.053-0.004-0.108-0.011-0.158-0.029c-3.56-1.094-5.854-3.754-5.854-6.769c0.205-2.068,0.4-5.586,0.048-6.637
	c-0.233-0.683-0.631-1.289-1.018-1.873c-0.455-0.69-0.927-1.403-1.107-2.233c-0.257-0.775-0.396-1.671-0.396-2.574
	c0-3.14,1.674-6.042,4.368-7.573c2.104-1.179,4.595-1.321,6.792-0.59c0.514-4.323,3.38-7.567,7.761-9.027v-5.736
	c0-0.521,0.431-0.94,0.962-0.94h9.297c0.532,0,0.962,0.42,0.962,0.94v5.734C44.096,26.571,47.099,30.371,47.099,35.404z
	 M37.654,42.147c0,0.924-0.139,1.825-0.417,2.67c-0.154,0.744-0.629,1.452-1.086,2.15c-0.391,0.586-0.793,1.19-1.022,1.868
	c-0.03,0.09-0.047,0.217-0.068,0.34H45.18V36.348h-9.735C36.833,37.916,37.654,39.969,37.654,42.147z M29.948,24.459
	c1.155-0.228,2.383-0.359,3.689-0.359c1.305,0,2.53,0.131,3.685,0.359v-4.297h-7.374V24.459z M22.13,34.867
	c0.44,0.278,0.868,0.59,1.248,0.958c2.583-2.465,6.677-3.036,9.859-1.271c0.12-0.055,0.255-0.092,0.4-0.092h11.489
	c-0.545-6.233-6.416-8.485-11.489-8.485C28.459,25.98,22.449,28.331,22.13,34.867z M33.304,48.245
	c0.304-0.909,0.798-1.653,1.232-2.308c0.396-0.593,0.74-1.113,0.843-1.601c0.242-0.757,0.351-1.462,0.351-2.193
	c0-2.472-1.307-4.749-3.411-5.942c-2.697-1.524-6.228-0.811-8.188,1.606c-0.183,0.228-0.457,0.353-0.754,0.353
	c-0.296,0-0.571-0.132-0.758-0.353c-0.503-0.624-1.123-1.112-1.784-1.505c-0.17-0.049-0.308-0.14-0.424-0.264
	c-0.873-0.431-1.837-0.669-2.831-0.669c-1.105,0-2.168,0.28-3.155,0.834c-2.099,1.194-3.406,3.473-3.406,5.943
	c0,0.712,0.111,1.418,0.33,2.093c0.129,0.584,0.471,1.095,0.863,1.689c0.435,0.654,0.921,1.392,1.231,2.307
	c0.598,1.774,0.102,6.758,0.04,7.323c0.007,1.759,1.266,3.419,3.308,4.409c0.365-5.908,3.125-10.271,6.577-10.271
	c3.474,0,6.243,4.418,6.589,10.261c2.034-0.98,3.289-2.663,3.289-4.495C33.202,55.001,32.71,50.023,33.304,48.245z M45.176,55.556
	v-4.505H34.938c0,1.425,0.118,3.144,0.235,4.319c0,0.063-0.015,0.119-0.017,0.185L45.176,55.556L45.176,55.556z"/>
</svg>
