<?xml version="1.0" encoding="utf-8"?>
<!-- Generator: Adobe Illustrator 17.1.0, SVG Export Plug-In . SVG Version: 6.00 Build 0)  -->
<!DOCTYPE svg PUBLIC "-//W3C//DTD SVG 1.1//EN" "http://www.w3.org/Graphics/SVG/1.1/DTD/svg11.dtd">
<svg version="1.1" id="Слой_1" xmlns="http://www.w3.org/2000/svg" xmlns:xlink="http://www.w3.org/1999/xlink" x="0px" y="0px"
	 width="41.994px" height="41.994px" viewBox="0 0 41.994 41.994" enable-background="new 0 0 41.994 41.994" xml:space="preserve">
<path d="M36.745,13.123c1.448,0,2.625,1.176,2.625,2.625v20.997c0,1.448-1.176,2.625-2.625,2.625H5.249
	c-1.447,0-2.625-1.176-2.625-2.625V15.748c0-1.448,1.178-2.625,2.625-2.625H36.745 M36.745,10.498H5.249
	C2.35,10.498,0,12.849,0,15.748v20.997c0,2.899,2.35,5.249,5.249,5.249h31.496c2.899,0,5.249-2.35,5.249-5.249V15.748
	C41.994,12.849,39.644,10.498,36.745,10.498L36.745,10.498z M13.123,7.874V5.249c0-1.445,1.178-2.625,2.625-2.625h10.498
	c1.448,0,2.625,1.179,2.625,2.625v2.625h2.625V5.249C31.496,2.35,29.145,0,26.246,0H15.748c-2.899,0-5.249,2.35-5.249,5.249v2.625
	H13.123z M28.871,23.622h-5.249v-5.249h-5.249v5.249h-5.249v5.249h5.249v5.249h5.249v-5.249h5.249V23.622z"/>
</svg>
