<?xml version="1.0" encoding="utf-8"?>
<!-- Generator: Adobe Illustrator 17.1.0, SVG Export Plug-In . SVG Version: 6.00 Build 0)  -->
<!DOCTYPE svg PUBLIC "-//W3C//DTD SVG 1.1//EN" "http://www.w3.org/Graphics/SVG/1.1/DTD/svg11.dtd">
<svg version="1.1" id="Слой_1" xmlns="http://www.w3.org/2000/svg" xmlns:xlink="http://www.w3.org/1999/xlink" x="0px" y="0px"
	 width="41.004px" height="43.999px" viewBox="0 0 41.004 43.999" enable-background="new 0 0 41.004 43.999" xml:space="preserve">
<g>
	<g>
		<path d="M39.968,19.105c-1.101-1.943-2.953-3.15-4.833-3.15c-1.189,0-2.302,0.47-3.22,1.358c-0.684,0.662-1.562,1.196-2.523,1.631
			c1.876-3.754,3.837-9.309,1.837-13.51c-1.553-3.263-5.14-5.09-10.658-5.43L20.502,0l-0.068,0.004
			c-5.519,0.339-9.104,2.166-10.659,5.43c-2,4.201-0.04,9.755,1.837,13.509c-0.962-0.434-1.839-0.969-2.523-1.63
			c-0.918-0.888-2.032-1.358-3.22-1.358c-1.881,0-3.733,1.207-4.834,3.15c-1.568,2.766-1.346,6.394,0.593,9.706
			c2.294,3.915,6.808,5.869,10.849,6.848l-1.274,5.201c-0.196,0.798-0.041,1.598,0.424,2.197c0.466,0.599,1.2,0.942,2.016,0.942
			H27.36c0.815,0,1.55-0.343,2.015-0.942c0.467-0.598,0.622-1.399,0.426-2.198l-1.274-5.201c4.04-0.979,8.555-2.933,10.848-6.848
			C41.314,25.501,41.535,21.872,39.968,19.105z M11.764,6.392c1.177-2.47,4.117-3.873,8.738-4.168
			c4.621,0.296,7.561,1.698,8.739,4.168c1.98,4.152-1.114,10.48-2.921,13.585c-2.979,0.733-5.775,0.81-5.793,0.81
			c-0.048-0.001-2.858-0.078-5.842-0.812C12.876,16.871,9.784,10.544,11.764,6.392z M27.642,41.688
			c-0.045,0.057-0.15,0.092-0.282,0.092H13.644c-0.132,0-0.237-0.035-0.282-0.092c-0.045-0.058-0.052-0.168-0.02-0.297l1.295-5.286
			c2.864,0.494,5.172,0.531,5.738,0.531l0.109-0.001l0.147,0.001c0.566,0,2.874-0.035,5.738-0.531l1.295,5.285
			C27.694,41.519,27.687,41.631,27.642,41.688z M15.163,33.96l0.921-3.768c0.108-0.439,0.578-0.825,1.033-0.893
			c2.153,0.307,4.342,0.287,6.503-0.027h0.132c0.493,0,1.049,0.439,1.167,0.921l0.923,3.768c-2.594,0.425-4.696,0.456-5.212,0.456
			l-0.146-0.001l-0.11,0.001C19.859,34.416,17.759,34.385,15.163,33.96z M37.477,27.683c-1.936,3.305-5.876,4.988-9.474,5.846
			l-0.946-3.868c-0.087-0.361-0.244-0.702-0.45-1.011c1.172-0.323,2.324-0.732,3.447-1.223c1.596-0.698,0.217-3.047-1.366-2.354
			c-5.12,2.243-11.292,2.467-16.37,0c-1.564-0.759-2.937,1.59-1.365,2.354c1.108,0.538,2.247,0.966,3.406,1.293
			c-0.183,0.292-0.329,0.607-0.411,0.94l-0.948,3.868c-3.597-0.857-7.537-2.541-9.474-5.846c-1.533-2.616-1.748-5.411-0.577-7.478
			c0.71-1.253,1.829-2.032,2.921-2.032c0.617,0,1.187,0.249,1.694,0.74c1.48,1.432,3.591,2.362,5.682,2.968
			c0.528,0.153,1.054,0.285,1.569,0.399c0.303,0.067,0.601,0.128,0.894,0.184c2.544,0.482,4.619,0.537,4.816,0.541
			c0.174-0.004,2.237-0.061,4.775-0.541c0.29-0.055,0.586-0.115,0.886-0.182c0.514-0.115,1.042-0.247,1.569-0.4
			c2.091-0.605,4.202-1.537,5.683-2.969c0.506-0.491,1.077-0.74,1.695-0.74c1.091,0,2.211,0.778,2.92,2.032
			C39.225,22.271,39.009,25.067,37.477,27.683z M22.949,6.659c3.551,0.322,3.435,4.161,2.364,6.731
			c-0.549,1.318,1.583,1.889,2.123,0.59c1.723-4.136,0.483-9.088-4.487-9.539C21.535,4.312,21.547,6.531,22.949,6.659z"/>
	</g>
</g>
</svg>
