<?xml version="1.0" encoding="utf-8"?>
<!-- Generator: Adobe Illustrator 17.1.0, SVG Export Plug-In . SVG Version: 6.00 Build 0)  -->
<!DOCTYPE svg PUBLIC "-//W3C//DTD SVG 1.1//EN" "http://www.w3.org/Graphics/SVG/1.1/DTD/svg11.dtd">
<svg version="1.1" id="Слой_1" xmlns="http://www.w3.org/2000/svg" xmlns:xlink="http://www.w3.org/1999/xlink" x="0px" y="0px"
	 width="100px" height="100px" viewBox="0 0 100 100" enable-background="new 0 0 100 100" xml:space="preserve">
<path d="M24.432,18.918l-4.629-4.347c1.477-1.992,1.287-4.755-0.591-6.537c-2.105-1.995-5.515-1.995-7.618,0
	c-2.103,1.995-2.103,5.229,0,7.223c1.906,1.808,4.877,1.96,6.985,0.49l4.622,4.339L24.432,18.918L24.432,18.918z M12.831,14.093
	c-1.418-1.346-1.418-3.526,0-4.872c1.42-1.345,3.719-1.345,5.137,0c1.419,1.346,1.419,3.526,0,4.872
	C16.55,15.438,14.251,15.438,12.831,14.093L12.831,14.093z"/>
</svg>
