<?xml version="1.0" encoding="utf-8"?>
<!-- Generator: Adobe Illustrator 17.1.0, SVG Export Plug-In . SVG Version: 6.00 Build 0)  -->
<!DOCTYPE svg PUBLIC "-//W3C//DTD SVG 1.1//EN" "http://www.w3.org/Graphics/SVG/1.1/DTD/svg11.dtd">
<svg version="1.1" id="Слой_1" xmlns="http://www.w3.org/2000/svg" xmlns:xlink="http://www.w3.org/1999/xlink" x="0px" y="0px"
	 width="14px" height="14px" viewBox="0 0 14 14" enable-background="new 0 0 14 14" xml:space="preserve">
<path d="M10.91,6.966H9.428v4.092H7.805V6.966H6.983l0.025-1.593H7.83V5.164c0-0.6,0.07-0.959,0.213-1.254
	c0.141-0.295,0.314-0.523,0.693-0.707c0.381-0.187,0.717-0.28,1.298-0.28c0.597,0,0.429,0.03,1.001,0.03l0.009,1.605
	c0,0-1.33-0.046-1.461,0.081C9.326,4.887,9.461,5.373,9.461,5.373h1.648L10.91,6.966z M11.875,0.5h-9.75
	C1.227,0.5,0.5,1.227,0.5,2.125v9.75c0,0.898,0.727,1.625,1.625,1.625h9.75c0.896,0,1.625-0.728,1.625-1.625v-9.75
	C13.5,1.227,12.771,0.5,11.875,0.5"/>
</svg>
