<?xml version="1.0" encoding="utf-8"?>
<!-- Generator: Adobe Illustrator 17.1.0, SVG Export Plug-In . SVG Version: 6.00 Build 0)  -->
<!DOCTYPE svg PUBLIC "-//W3C//DTD SVG 1.1//EN" "http://www.w3.org/Graphics/SVG/1.1/DTD/svg11.dtd">
<svg version="1.1" id="Слой_1" xmlns="http://www.w3.org/2000/svg" xmlns:xlink="http://www.w3.org/1999/xlink" x="0px" y="0px"
	 width="14px" height="14px" viewBox="0 0 14 14" enable-background="new 0 0 14 14" xml:space="preserve">
<path d="M12.785,1.214c-0.477-0.477-1.051-0.715-1.722-0.715H2.937c-0.671,0-1.246,0.238-1.722,0.715
	C0.738,1.691,0.499,2.265,0.499,2.937v8.126c0,0.671,0.238,1.246,0.715,1.723C1.691,13.262,2.266,13.5,2.937,13.5h8.126
	c0.671,0,1.246-0.238,1.722-0.715c0.477-0.477,0.715-1.051,0.715-1.723V2.937C13.5,2.265,13.262,1.691,12.785,1.214z M4.516,11.016
	c-0.212,0.212-0.467,0.317-0.766,0.317c-0.299,0-0.554-0.106-0.766-0.317c-0.212-0.212-0.317-0.467-0.317-0.766
	c0-0.299,0.106-0.554,0.317-0.766C3.195,9.273,3.451,9.167,3.75,9.167c0.299,0,0.554,0.106,0.766,0.317
	c0.212,0.212,0.317,0.467,0.317,0.766C4.833,10.549,4.727,10.804,4.516,11.016z M7.728,11.249c-0.056,0.056-0.121,0.084-0.195,0.084
	H6.45c-0.073,0-0.135-0.024-0.186-0.072c-0.051-0.048-0.079-0.109-0.085-0.182C6.117,10.21,5.775,9.466,5.155,8.844
	C4.534,8.224,3.789,7.883,2.92,7.82C2.847,7.815,2.786,7.787,2.738,7.736C2.69,7.685,2.666,7.623,2.666,7.55V6.466
	c0-0.073,0.028-0.138,0.085-0.195C2.807,6.215,2.875,6.19,2.954,6.195C4.263,6.269,5.38,6.768,6.306,7.694
	c0.925,0.925,1.425,2.043,1.498,3.352C7.81,11.125,7.784,11.192,7.728,11.249z M10.978,11.249c-0.056,0.056-0.121,0.085-0.195,0.085
	H9.7c-0.073,0-0.135-0.025-0.186-0.076c-0.051-0.051-0.079-0.113-0.085-0.186c-0.04-1.151-0.354-2.218-0.944-3.2
	C7.896,6.89,7.11,6.104,6.128,5.514C5.146,4.924,4.08,4.61,2.929,4.57C2.855,4.565,2.793,4.537,2.742,4.486
	C2.692,4.435,2.666,4.373,2.666,4.3V3.216c0-0.073,0.028-0.138,0.085-0.194C2.802,2.965,2.866,2.94,2.946,2.945
	c0.869,0.028,1.708,0.186,2.518,0.474C6.273,3.707,7.007,4.101,7.665,4.6C8.322,5.099,8.9,5.678,9.4,6.335
	c0.499,0.658,0.893,1.391,1.181,2.201c0.288,0.81,0.446,1.649,0.474,2.518C11.066,11.133,11.04,11.198,10.978,11.249z"/>
</svg>
