<?xml version="1.0" encoding="utf-8"?>
<!-- Generator: Adobe Illustrator 17.1.0, SVG Export Plug-In . SVG Version: 6.00 Build 0)  -->
<!DOCTYPE svg PUBLIC "-//W3C//DTD SVG 1.1//EN" "http://www.w3.org/Graphics/SVG/1.1/DTD/svg11.dtd">
<svg version="1.1" id="Слой_1" xmlns="http://www.w3.org/2000/svg" xmlns:xlink="http://www.w3.org/1999/xlink" x="0px" y="0px"
	 width="14px" height="14px" viewBox="0 0 14 14" enable-background="new 0 0 14 14" xml:space="preserve">
<path d="M9.412,10.656c-0.355,0.203-1.955,0.584-2.869,0.33c-0.914-0.254-1.168-1.371-1.168-1.371V6.186H4.64V4.588h0.735v-1.6
	h1.271v1.573h1.979v1.677H7v2.488C7,9.818,7.381,9.844,7.965,9.92c0.584,0.076,1.447-0.406,1.447-0.406V10.656z M11.875,0.5h-9.75
	C1.227,0.5,0.5,1.227,0.5,2.125v9.75c0,0.898,0.727,1.625,1.625,1.625h9.75c0.898,0,1.625-0.727,1.625-1.625v-9.75
	C13.5,1.227,12.773,0.5,11.875,0.5"/>
</svg>
