<?xml version="1.0" encoding="utf-8"?>
<!-- Generator: Adobe Illustrator 17.1.0, SVG Export Plug-In . SVG Version: 6.00 Build 0)  -->
<!DOCTYPE svg PUBLIC "-//W3C//DTD SVG 1.1//EN" "http://www.w3.org/Graphics/SVG/1.1/DTD/svg11.dtd">
<svg version="1.1" id="Слой_1" xmlns="http://www.w3.org/2000/svg" xmlns:xlink="http://www.w3.org/1999/xlink" x="0px" y="0px"
	 width="14px" height="14px" viewBox="0 0 14 14" enable-background="new 0 0 14 14" xml:space="preserve">
<path d="M10.268,9.408c-0.143,0.282-0.332,0.516-0.571,0.701c-0.282,0.222-0.593,0.38-0.931,0.475
	c-0.338,0.095-0.767,0.142-1.29,0.142H4.468V3.209h2.654c0.552,0,0.97,0.021,1.255,0.064c0.285,0.042,0.551,0.131,0.799,0.265
	c0.27,0.146,0.472,0.338,0.604,0.581C9.912,4.36,9.98,4.639,9.98,4.956c0,0.366-0.092,0.693-0.274,0.979
	C9.521,6.221,9.268,6.431,8.945,6.566v0.04c0.466,0.098,0.836,0.297,1.116,0.598c0.279,0.301,0.419,0.708,0.419,1.219
	C10.48,8.797,10.408,9.125,10.268,9.408 M10.943,0.5H3.058C1.645,0.5,0.5,1.645,0.5,3.057v7.885c0,1.413,1.146,2.558,2.559,2.558
	h7.884c1.413,0,2.557-1.145,2.557-2.558V3.057C13.5,1.645,12.356,0.5,10.943,0.5 M7.262,6.167c0.129-0.007,0.263-0.042,0.4-0.106
	C7.815,5.99,7.918,5.893,7.976,5.768c0.058-0.124,0.086-0.27,0.086-0.435c0-0.121-0.031-0.245-0.095-0.373
	C7.906,4.833,7.81,4.74,7.678,4.683C7.554,4.629,7.406,4.6,7.237,4.595c-0.17-0.006-0.424-0.009-0.76-0.009H6.346v1.591h0.237
	C6.906,6.177,7.132,6.174,7.262,6.167 M7.971,7.545C7.857,7.501,7.7,7.477,7.499,7.472C7.298,7.468,7.03,7.464,6.694,7.464H6.346
	v1.884h0.101c0.491,0,0.831-0.003,1.019-0.011c0.188-0.007,0.38-0.052,0.575-0.136c0.172-0.074,0.297-0.183,0.377-0.326
	C8.496,8.732,8.535,8.57,8.535,8.388c0-0.232-0.047-0.414-0.141-0.545C8.301,7.712,8.158,7.612,7.971,7.545"/>
</svg>
