<?xml version="1.0" encoding="utf-8"?>
<!-- Generator: Adobe Illustrator 17.1.0, SVG Export Plug-In . SVG Version: 6.00 Build 0)  -->
<!DOCTYPE svg PUBLIC "-//W3C//DTD SVG 1.1//EN" "http://www.w3.org/Graphics/SVG/1.1/DTD/svg11.dtd">
<svg version="1.1" id="Слой_1" xmlns="http://www.w3.org/2000/svg" xmlns:xlink="http://www.w3.org/1999/xlink" x="0px" y="0px"
	 width="100px" height="100px" viewBox="0 0 100 100" enable-background="new 0 0 100 100" xml:space="preserve">
<defs>
	<path id="SVGID_1_" d="M21.358,12.143c0.144-0.182,0.214-0.418,0.15-0.658l-1.893-7.073c-0.11-0.408-0.536-0.654-0.95-0.545
		L6.571,7.01C6.158,7.118,5.909,7.54,6.018,7.948l1.893,7.072c0.109,0.409,0.537,0.653,0.951,0.547l4.273-1.111v2.367
		c0,1.325,2.227,2.018,4.428,2.018c2.2,0,4.429-0.693,4.429-2.018v-3.591C21.991,12.8,21.751,12.438,21.358,12.143z M19.988,9.706
		l0.198,0.736l-2.404,0.626l-0.196-0.738L19.988,9.706z M18.593,5.047l0.375,1.402l-3.756,0.977l-0.375-1.402L18.593,5.047z
		 M16.908,10.506l0.192,0.72c-0.889,0.039-1.754,0.192-2.449,0.453l-0.147-0.547L16.908,10.506z M8.538,13.47l-0.196-0.735
		l2.404-0.627l0.198,0.739L8.538,13.47z M11.423,11.934l2.402-0.626l0.182,0.674c-0.058,0.036-0.113,0.072-0.167,0.11l-2.221,0.577
		L11.423,11.934z M21.189,16.764c0,0.772-1.623,1.398-3.627,1.398c-2.002,0-3.627-0.626-3.627-1.398v-0.87
		c0-0.029,0.017-0.055,0.022-0.083c0.115,0.732,1.676,1.313,3.604,1.313c1.93,0,3.491-0.581,3.605-1.313
		c0.005,0.028,0.022,0.054,0.022,0.083V16.764z M21.189,15.054c0,0.771-1.623,1.397-3.627,1.397c-2.002,0-3.627-0.625-3.627-1.397
		v-0.87c0-0.029,0.017-0.056,0.022-0.083c0.115,0.732,1.676,1.314,3.604,1.314c1.93,0,3.491-0.582,3.605-1.314
		c0.005,0.028,0.022,0.055,0.022,0.083V15.054z M17.562,14.628c-2.002,0-3.627-0.625-3.627-1.396c0-0.771,1.625-1.396,3.627-1.396
		c2.004,0,3.627,0.625,3.627,1.396C21.189,14.003,19.566,14.628,17.562,14.628z"/>
</defs>
<use xlink:href="#SVGID_1_"  overflow="visible"/>
<clipPath id="SVGID_2_">
	<use xlink:href="#SVGID_1_"  overflow="visible"/>
</clipPath>
</svg>
