<?xml version="1.0" encoding="utf-8"?>
<!-- Generator: Adobe Illustrator 17.1.0, SVG Export Plug-In . SVG Version: 6.00 Build 0)  -->
<!DOCTYPE svg PUBLIC "-//W3C//DTD SVG 1.1//EN" "http://www.w3.org/Graphics/SVG/1.1/DTD/svg11.dtd">
<svg version="1.1" id="Слой_1" xmlns="http://www.w3.org/2000/svg" xmlns:xlink="http://www.w3.org/1999/xlink" x="0px" y="0px"
	 width="100px" height="100px" viewBox="0 0 100 100" enable-background="new 0 0 100 100" xml:space="preserve">
<path fill-rule="evenodd" clip-rule="evenodd" d="M8.196,4.632c1.879,0,4.358,0,4.358,0V6.3l3.579-2.543l-3.579-2.597v1.722
	c0,0-1.582,0-4.441,0c-2.859,0-5.177,2.319-5.177,5.181l1.858-0.026C4.795,6.156,6.317,4.632,8.196,4.632z M15.205,8.166
	c0,1.929-1.563,3.493-3.49,3.493c-1.928,0-4.461,0.055-4.461,0.055V9.909l-3.443,2.598l3.497,2.652v-1.805c0,0,1.529,0,4.411,0
	c2.883,0,5.219-2.339,5.219-5.223L15.205,8.166z"/>
</svg>
