<?xml version="1.0" encoding="utf-8"?>
<!-- Generator: Adobe Illustrator 16.0.3, SVG Export Plug-In . SVG Version: 6.00 Build 0)  -->
<!DOCTYPE svg PUBLIC "-//W3C//DTD SVG 1.0//EN" "http://www.w3.org/TR/2001/REC-SVG-20010904/DTD/svg10.dtd">
<svg version="1.0" id="Layer_1" xmlns="http://www.w3.org/2000/svg" xmlns:xlink="http://www.w3.org/1999/xlink" x="0px" y="0px"
	 width="40.006px" height="37.996px" viewBox="0 0 40.006 37.996" enable-background="new 0 0 40.006 37.996" xml:space="preserve">
<path d="M36.964,11.784L28.54,9.878l-5.285-8.034C22.484,0.672,21.299,0,20.003,0c-1.296,0-2.48,0.672-3.251,1.844l-5.286,8.034
	l-8.423,1.906c-1.417,0.321-2.463,1.208-2.869,2.437c-0.406,1.228-0.093,2.553,0.86,3.635l6.234,7.078L6.32,33.716
	c-0.127,1.178,0.209,2.272,0.947,3.081c0.977,1.071,2.537,1.465,4.069,1.007l8.667-2.593l8.668,2.593
	c0.426,0.127,0.855,0.191,1.278,0.191c1.094,0,2.085-0.426,2.791-1.199c0.737-0.808,1.074-1.902,0.947-3.081l-0.948-8.781
	l6.234-7.079c0.952-1.083,1.266-2.407,0.86-3.635C39.426,12.993,38.381,12.105,36.964,11.784z M27.374,23.273l0.985,9.126
	l-8.355-2.5l-8.355,2.5l0.985-9.126l-6.202-7.041l8.224-1.861l5.347-8.128l5.348,8.128l8.224,1.861L27.374,23.273z"/>
</svg>
