<?xml version="1.0" encoding="utf-8"?>
<!-- Generator: Adobe Illustrator 17.1.0, SVG Export Plug-In . SVG Version: 6.00 Build 0)  -->
<!DOCTYPE svg PUBLIC "-//W3C//DTD SVG 1.1//EN" "http://www.w3.org/Graphics/SVG/1.1/DTD/svg11.dtd">
<svg version="1.1" id="Слой_1" xmlns="http://www.w3.org/2000/svg" xmlns:xlink="http://www.w3.org/1999/xlink" x="0px" y="0px"
	 width="43.996px" height="43.994px" viewBox="0 0 43.996 43.994" enable-background="new 0 0 43.996 43.994" xml:space="preserve">
<g>
	<g>
		<path d="M41.783,17.431l-4.212-0.844c-0.212-0.609-0.462-1.2-0.738-1.772l2.386-3.58c0.728-1.09,0.584-2.543-0.344-3.469
			L36.23,5.12c-0.532-0.532-1.234-0.805-1.947-0.805c-0.526,0-1.058,0.151-1.521,0.462l-3.581,2.385
			c-0.575-0.278-1.165-0.525-1.775-0.737L26.563,2.21C26.306,0.923,25.177,0,23.867,0h-3.74c-1.311,0-2.439,0.925-2.696,2.21
			l-0.844,4.214c-0.609,0.212-1.2,0.461-1.772,0.737l-3.579-2.385c-0.466-0.311-0.997-0.462-1.524-0.462
			C9,4.314,8.298,4.588,7.765,5.12L5.121,7.765c-0.927,0.927-1.071,2.379-0.344,3.469l2.385,3.58
			c-0.278,0.573-0.525,1.165-0.737,1.773l-4.215,0.843C0.925,17.688,0,18.816,0,20.127v3.74c0,1.31,0.925,2.44,2.211,2.696
			l4.214,0.846c0.212,0.608,0.461,1.2,0.737,1.772L4.778,32.76c-0.728,1.09-0.583,2.543,0.344,3.469l2.645,2.645
			c0.532,0.532,1.235,0.806,1.945,0.806c0.528,0,1.06-0.153,1.523-0.462l3.58-2.387c0.573,0.279,1.164,0.526,1.773,0.739
			l0.843,4.213c0.257,1.286,1.386,2.211,2.696,2.211h3.739c1.31,0,2.441-0.927,2.696-2.211l0.846-4.213
			c0.61-0.212,1.2-0.462,1.772-0.739l3.581,2.387c0.465,0.309,0.998,0.462,1.521,0.462c0.713,0,1.415-0.274,1.947-0.806l2.645-2.645
			c0.928-0.926,1.071-2.379,0.344-3.469l-2.386-3.579c0.279-0.575,0.526-1.167,0.738-1.775l4.212-0.843
			c1.286-0.255,2.213-1.386,2.213-2.696v-3.74C43.996,18.816,43.069,17.688,41.783,17.431z M37.03,24.71
			c-0.956,0.192-1.738,0.873-2.057,1.795c-0.177,0.506-0.383,0.999-0.614,1.475c-0.428,0.88-0.356,1.916,0.185,2.726l2.386,3.58
			l-2.645,2.646l-3.579-2.387c-0.459-0.306-0.991-0.462-1.525-0.462c-0.408,0-0.819,0.09-1.198,0.274
			c-0.478,0.231-0.969,0.439-1.48,0.616c-0.918,0.319-1.6,1.102-1.791,2.057l-0.846,4.216h-3.739l-0.843-4.216
			c-0.191-0.955-0.873-1.737-1.793-2.057c-0.507-0.177-1.001-0.383-1.478-0.614c-0.379-0.187-0.789-0.277-1.199-0.277
			c-0.535,0-1.065,0.156-1.525,0.462l-3.58,2.387l-2.645-2.646l2.385-3.58c0.541-0.811,0.61-1.847,0.189-2.723
			c-0.232-0.478-0.439-0.97-0.616-1.478c-0.319-0.92-1.102-1.601-2.057-1.792l-4.214-0.846l-0.003-3.74l4.215-0.843
			c0.954-0.19,1.738-0.873,2.057-1.792c0.177-0.508,0.382-1.001,0.614-1.478c0.426-0.877,0.355-1.914-0.187-2.723l-2.384-3.58
			l2.643-2.645l3.58,2.385c0.459,0.307,0.991,0.462,1.524,0.462c0.408,0,0.818-0.091,1.198-0.273
			c0.477-0.232,0.969-0.439,1.478-0.616c0.92-0.319,1.602-1.102,1.792-2.057l0.845-4.214l3.74-0.001l0.843,4.215
			c0.19,0.955,0.873,1.738,1.794,2.057c0.508,0.177,0.999,0.382,1.477,0.614c0.38,0.185,0.788,0.275,1.2,0.275
			c0.534,0,1.065-0.155,1.524-0.462l3.581-2.385l2.645,2.645l-2.387,3.58c-0.54,0.811-0.61,1.846-0.188,2.722
			c0.231,0.477,0.44,0.969,0.618,1.478c0.318,0.92,1.101,1.602,2.057,1.792l4.212,0.844l0.004,3.74L37.03,24.71z M21.998,12.372
			c-5.314,0-9.624,4.31-9.624,9.624c0,5.315,4.31,9.624,9.624,9.624c5.314,0,9.624-4.31,9.624-9.624
			C31.622,16.682,27.312,12.372,21.998,12.372z M21.998,30.419c-4.649,0-8.421-3.773-8.421-8.421c0-4.649,3.771-8.421,8.421-8.421
			c4.648,0,8.421,3.771,8.421,8.421C30.419,26.646,26.646,30.419,21.998,30.419z M21.998,16.497c-3.038,0-5.499,2.461-5.499,5.499
			c0,3.037,2.461,5.499,5.499,5.499c3.037,0,5.5-2.462,5.5-5.499C27.497,18.959,25.035,16.497,21.998,16.497z M21.998,26.122
			c-2.277,0-4.124-1.847-4.124-4.125c0-2.276,1.847-4.125,4.124-4.125c2.277,0,4.125,1.848,4.125,4.125
			C26.122,24.275,24.275,26.122,21.998,26.122z"/>
	</g>
</g>
</svg>
