<?xml version="1.0" encoding="iso-8859-1"?>
<!-- Generator: Adobe Illustrator 16.0.3, SVG Export Plug-In . SVG Version: 6.00 Build 0)  -->
<!DOCTYPE svg PUBLIC "-//W3C//DTD SVG 1.1//EN" "http://www.w3.org/Graphics/SVG/1.1/DTD/svg11.dtd">
<svg version="1.1" id="Layer_1" xmlns="http://www.w3.org/2000/svg" xmlns:xlink="http://www.w3.org/1999/xlink" x="0px" y="0px"
	 width="14px" height="14.982px" viewBox="0 0 14 14.982" style="enable-background:new 0 0 14 14.982;" xml:space="preserve">
<path style="fill:#2980BA;" d="M8.79,8.738H8.75V7.418c0.53-0.812,0.891-1.774,0.891-2.25c0-0.304-0.021-0.581-0.061-0.836
	L9.6,4.331L9.95,3.835l0.09-0.276L9.46,3.09L9.27,2.869l0.44-0.414L9.03,1.49L8.939,1.38L8.75,1.352L8.61,1.214l-0.3-0.579L8.59,0
	L7.41,0.607l0.08-0.248C6.95,0.513,6.51,0.739,6.14,1.002L6.04,0.8l-0.3,0.083L5.47,1.104L5.141,1.076L5.09,1.407L5.311,1.82
	c0,0,0,0,0,0.001L4.79,2.042L4.65,2.427L4.57,3.417C4.47,3.827,4.439,4.168,4.43,4.365C4.4,4.611,4.38,4.876,4.38,5.168
	c0,0.459,0.351,1.406,0.87,2.212v1.375L0,11.533v3.449h14v-3.504L8.79,8.738L8.79,8.738z"/>
</svg>
