<?xml version="1.0" encoding="utf-8"?>
<!-- Generator: Adobe Illustrator 17.1.0, SVG Export Plug-In . SVG Version: 6.00 Build 0)  -->
<!DOCTYPE svg PUBLIC "-//W3C//DTD SVG 1.1//EN" "http://www.w3.org/Graphics/SVG/1.1/DTD/svg11.dtd">
<svg version="1.1" id="Слой_1" xmlns="http://www.w3.org/2000/svg" xmlns:xlink="http://www.w3.org/1999/xlink" x="0px" y="0px"
	 width="44.001px" height="26.049px" viewBox="0 0 44.001 26.049" enable-background="new 0 0 44.001 26.049" xml:space="preserve">
<path d="M1.224,19.272c1.108,3.977,4.707,6.735,8.828,6.735c4.765,0,8.746-3.703,9.137-8.464c0.656-0.542,1.641-1.138,2.849-1.138
	c0.001,0,0.001,0,0.002,0c1.083,0.023,2.069,0.621,2.742,1.161c0.402,4.748,4.382,8.442,9.136,8.442
	c4.112,0,7.707-2.749,8.822-6.715c0.975-0.335,1.424-1.613,1.209-3.496c-0.032-0.28-0.104-0.508-0.195-0.7h0.041L36.112,1.321
	c-0.245-0.438-0.827-0.817-1.325-0.862l-5.081-0.455c-0.551-0.049-0.999,0.372-0.999,0.92v0.931c0,0.554,0.454,0.958,1.002,0.898
	l5.341-0.622l3.592,6.742c-1.391-0.843-3.01-1.325-4.724-1.325c-4.38,0-8.146,3.15-8.993,7.419
	c-0.938-0.516-1.891-0.788-2.839-0.808l-0.102-0.001c-0.999,0-1.986,0.267-2.943,0.793c-0.854-4.259-4.617-7.402-8.989-7.402
	c-1.705,0-3.316,0.477-4.703,1.313l3.585-6.729l5.341,0.623c0.542,0.06,1.002-0.344,1.002-0.898V0.925c0-0.548-0.447-0.974-1-0.92
	L9.195,0.461C8.697,0.506,8.115,0.884,7.87,1.323L0.19,15.096h0.059c-0.093,0.192-0.164,0.42-0.197,0.7
	C-0.159,17.643,0.277,18.915,1.224,19.272z M33.908,9.907c3.833,0,6.953,3.137,6.953,6.992c0,3.855-3.119,6.992-6.953,6.992
	c-3.833,0-6.953-3.137-6.953-6.992C26.955,13.044,30.074,9.907,33.908,9.907z M10.18,9.907c3.834,0,6.953,3.137,6.953,6.992
	c0,3.855-3.119,6.992-6.953,6.992c-3.833,0-6.952-3.137-6.952-6.992C3.228,13.044,6.347,9.907,10.18,9.907z"/>
</svg>
